<mxfile host="app.diagrams.net" modified="2022-04-17T01:27:10.163Z" agent="5.0 (Macintosh; Intel Mac OS X 10_15_7) AppleWebKit/537.36 (KHTML, like Gecko) Chrome/100.0.4896.88 Safari/537.36" etag="DIqB2n35gFJgb3qsUusS" version="17.4.5" type="github">
  <diagram id="jdpMgXkDtUNJv-AqqA1i" name="Page-1">
    <mxGraphModel dx="2065" dy="1161" grid="1" gridSize="10" guides="1" tooltips="1" connect="1" arrows="1" fold="1" page="1" pageScale="1" pageWidth="850" pageHeight="1100" math="0" shadow="0">
      <root>
        <mxCell id="0" />
        <mxCell id="1" parent="0" />
        <mxCell id="OSkiJPJPAGyuIHmSn12r-1" value="" style="verticalLabelPosition=bottom;html=1;verticalAlign=top;align=center;strokeColor=none;fillColor=#00BEF2;shape=mxgraph.azure.mobile;pointerEvents=1;" vertex="1" parent="1">
          <mxGeometry x="120" y="340" width="35" height="50" as="geometry" />
        </mxCell>
        <mxCell id="OSkiJPJPAGyuIHmSn12r-2" value="Front end server" style="whiteSpace=wrap;html=1;aspect=fixed;" vertex="1" parent="1">
          <mxGeometry x="370" y="301.75" width="126.5" height="126.5" as="geometry" />
        </mxCell>
        <mxCell id="OSkiJPJPAGyuIHmSn12r-4" value="RDB" style="shape=cylinder3;whiteSpace=wrap;html=1;boundedLbl=1;backgroundOutline=1;size=15;" vertex="1" parent="1">
          <mxGeometry x="335.25" y="140" width="60" height="80" as="geometry" />
        </mxCell>
        <mxCell id="OSkiJPJPAGyuIHmSn12r-5" value="Load Balancer" style="rounded=0;whiteSpace=wrap;html=1;" vertex="1" parent="1">
          <mxGeometry x="220" y="325" width="90" height="80" as="geometry" />
        </mxCell>
        <mxCell id="OSkiJPJPAGyuIHmSn12r-6" value="Blob storage" style="shape=cylinder3;whiteSpace=wrap;html=1;boundedLbl=1;backgroundOutline=1;size=15;" vertex="1" parent="1">
          <mxGeometry x="470" y="150" width="60" height="80" as="geometry" />
        </mxCell>
        <mxCell id="OSkiJPJPAGyuIHmSn12r-7" value="Back end ML server or service" style="whiteSpace=wrap;html=1;aspect=fixed;" vertex="1" parent="1">
          <mxGeometry x="610" y="301.75" width="126.5" height="126.5" as="geometry" />
        </mxCell>
        <mxCell id="OSkiJPJPAGyuIHmSn12r-8" value="" style="endArrow=classic;startArrow=classic;html=1;rounded=0;exitX=0.5;exitY=0;exitDx=0;exitDy=0;" edge="1" parent="1" source="OSkiJPJPAGyuIHmSn12r-2" target="OSkiJPJPAGyuIHmSn12r-4">
          <mxGeometry width="50" height="50" relative="1" as="geometry">
            <mxPoint x="400" y="590" as="sourcePoint" />
            <mxPoint x="450" y="540" as="targetPoint" />
          </mxGeometry>
        </mxCell>
        <mxCell id="OSkiJPJPAGyuIHmSn12r-9" value="" style="endArrow=classic;startArrow=classic;html=1;rounded=0;exitX=0;exitY=0.5;exitDx=0;exitDy=0;entryX=1;entryY=0.5;entryDx=0;entryDy=0;entryPerimeter=0;" edge="1" parent="1" source="OSkiJPJPAGyuIHmSn12r-5" target="OSkiJPJPAGyuIHmSn12r-1">
          <mxGeometry width="50" height="50" relative="1" as="geometry">
            <mxPoint x="435.25" y="311.75" as="sourcePoint" />
            <mxPoint x="435.25" y="240" as="targetPoint" />
          </mxGeometry>
        </mxCell>
        <mxCell id="OSkiJPJPAGyuIHmSn12r-10" value="" style="endArrow=classic;startArrow=classic;html=1;rounded=0;entryX=1;entryY=0.5;entryDx=0;entryDy=0;" edge="1" parent="1" source="OSkiJPJPAGyuIHmSn12r-7" target="OSkiJPJPAGyuIHmSn12r-2">
          <mxGeometry width="50" height="50" relative="1" as="geometry">
            <mxPoint x="372" y="375" as="sourcePoint" />
            <mxPoint x="490" y="365" as="targetPoint" />
          </mxGeometry>
        </mxCell>
        <mxCell id="OSkiJPJPAGyuIHmSn12r-11" value="" style="endArrow=classic;startArrow=classic;html=1;rounded=0;exitX=0.5;exitY=0;exitDx=0;exitDy=0;entryX=0.5;entryY=1;entryDx=0;entryDy=0;entryPerimeter=0;" edge="1" parent="1" source="OSkiJPJPAGyuIHmSn12r-2" target="OSkiJPJPAGyuIHmSn12r-6">
          <mxGeometry width="50" height="50" relative="1" as="geometry">
            <mxPoint x="435.25" y="311.75" as="sourcePoint" />
            <mxPoint x="396.7265100671143" y="240" as="targetPoint" />
          </mxGeometry>
        </mxCell>
        <mxCell id="OSkiJPJPAGyuIHmSn12r-12" value="" style="endArrow=classic;startArrow=classic;html=1;rounded=0;exitX=0;exitY=0.5;exitDx=0;exitDy=0;entryX=1;entryY=0.5;entryDx=0;entryDy=0;" edge="1" parent="1" source="OSkiJPJPAGyuIHmSn12r-2" target="OSkiJPJPAGyuIHmSn12r-5">
          <mxGeometry width="50" height="50" relative="1" as="geometry">
            <mxPoint x="240" y="375" as="sourcePoint" />
            <mxPoint x="320" y="365" as="targetPoint" />
          </mxGeometry>
        </mxCell>
      </root>
    </mxGraphModel>
  </diagram>
</mxfile>
